HIERARCHY
ROOT Hips
{
	OFFSET 173.408295 91.952423 -518.280273
	CHANNELS 6 Xposition Yposition Zposition Zrotation Yrotation Xrotation 
	JOINT LeftUpLeg
	{
		OFFSET 0.103459 1.857827 10.548504
		CHANNELS 3 Zrotation Yrotation Xrotation
		JOINT LeftLeg
		{
			OFFSET 43.500008 0.000000 0.000004
			CHANNELS 3 Zrotation Yrotation Xrotation
			JOINT LeftFoot
			{
				OFFSET 42.372192 0.000011 0.000000
				CHANNELS 3 Zrotation Yrotation Xrotation
				JOINT LeftToe
				{
					OFFSET 17.299973 -0.000013 -0.000010
					CHANNELS 3 Zrotation Yrotation Xrotation
					End Site
					{
						OFFSET 0.000000 0.000000 0.000000
					}
				}
			}
		}
	}
	JOINT RightUpLeg
	{
		OFFSET 0.103454 1.857830 -10.548500
		CHANNELS 3 Zrotation Yrotation Xrotation
		JOINT RightLeg
		{
			OFFSET 43.500038 -0.000038 0.000004
			CHANNELS 3 Zrotation Yrotation Xrotation
			JOINT RightFoot
			{
				OFFSET 42.372253 0.000019 0.000024
				CHANNELS 3 Zrotation Yrotation Xrotation
				JOINT RightToe
				{
					OFFSET 17.299988 -0.000007 0.000004
					CHANNELS 3 Zrotation Yrotation Xrotation
					End Site
					{
						OFFSET 0.000000 0.000000 0.000000
					}
				}
			}
		}
	}
	JOINT Spine
	{
		OFFSET 6.901963 -2.603744 0.000004
		CHANNELS 3 Zrotation Yrotation Xrotation
		JOINT Spine1
		{
			OFFSET 12.588104 0.000008 -0.000010
			CHANNELS 3 Zrotation Yrotation Xrotation
			JOINT Spine2
			{
				OFFSET 12.343202 -0.000005 0.000010
				CHANNELS 3 Zrotation Yrotation Xrotation
				JOINT Neck
				{
					OFFSET 25.832897 0.000000 0.000001
					CHANNELS 3 Zrotation Yrotation Xrotation
					JOINT Head
					{
						OFFSET 11.766611 -0.000006 -0.000000
						CHANNELS 3 Zrotation Yrotation Xrotation
						End Site
						{
							OFFSET 0.000000 0.000000 0.000000
						}
					}
				}
				JOINT LeftShoulder
				{
					OFFSET 19.745899 -1.480366 6.000108
					CHANNELS 3 Zrotation Yrotation Xrotation
					JOINT LeftArm
					{
						OFFSET 11.284111 -0.000018 -0.000015
						CHANNELS 3 Zrotation Yrotation Xrotation
						JOINT LeftForeArm
						{
							OFFSET 33.000050 -0.000005 0.000028
							CHANNELS 3 Zrotation Yrotation Xrotation
							JOINT LeftHand
							{
								OFFSET 25.200012 0.000000 0.000002
								CHANNELS 3 Zrotation Yrotation Xrotation
								End Site
								{
									OFFSET 0.000000 0.000000 0.000000
								}
							}
						}
					}
				}
				JOINT RightShoulder
				{
					OFFSET 19.746111 -1.480335 -6.000074
					CHANNELS 3 Zrotation Yrotation Xrotation
					JOINT RightArm
					{
						OFFSET 11.284151 0.000036 0.000001
						CHANNELS 3 Zrotation Yrotation Xrotation
						JOINT RightForeArm
						{
							OFFSET 33.000092 -0.000035 0.000022
							CHANNELS 3 Zrotation Yrotation Xrotation
							JOINT RightHand
							{
								OFFSET 25.199768 0.000178 0.000417
								CHANNELS 3 Zrotation Yrotation Xrotation
								End Site
								{
									OFFSET 0.000000 0.000000 0.000000
								}
							}
						}
					}
				}
			}
		}
	}
}
MOTION
Frames: 12
Frame Time: 0.033333
103.205360 -11.337662 487.267426 95.340050 4.625769 114.432816 179.995590 -3.030938 162.951385 -62.970863 2.267949 -5.159140 48.380230 -9.086789 -14.367520 21.454300 0.003092 0.000001 141.835449 -8.236432 179.030594 -53.037971 6.813385 7.505883 78.488052 -7.487036 -44.428864 21.455000 -0.003110 -0.000017 8.749473 3.965011 -1.592620 12.831736 4.148388 0.792816 13.422125 4.298633 0.477690 -27.298639 -16.097088 -17.726015 -6.409843 48.942215 -4.024186 152.401749 -86.533493 18.999035 -16.934944 61.784672 130.379761 66.422134 -34.089420 -69.567215 -6.026815 -21.988895 41.116409 -169.308502 70.452164 6.550371 15.954317 -46.666912 -125.848701 50.815449 41.617973 48.661015 -1.507831 23.517622 -15.783293 
104.334007 -10.342974 491.018188 95.511803 3.766472 112.164719 171.136459 -4.723888 165.217499 -75.363487 3.280283 -4.664830 44.264023 -5.005463 -11.041672 21.454237 0.003092 0.000001 144.612259 -7.729244 178.970520 -54.261837 6.100204 6.310874 80.097183 -5.485052 -35.368984 21.455008 -0.003109 -0.000017 8.358449 3.540654 -1.107466 13.336494 3.893037 1.659816 13.136986 4.127791 1.277719 -28.058800 -17.131205 -16.971428 -8.564825 49.874264 -5.356249 145.968307 -87.938820 24.923286 -15.600479 61.770847 132.169159 60.603016 -31.167364 -65.598785 -6.864425 -21.195747 39.564789 -171.030197 70.875496 4.995053 13.911895 -46.131874 -124.983330 51.092850 42.796276 48.028889 -1.416484 23.253696 -13.868650 
104.929459 -9.292448 494.875000 96.259270 3.303126 109.434883 159.690598 -6.307406 166.841995 -90.526131 5.287799 -3.065375 42.469189 -1.810547 -9.039453 21.454187 0.003092 0.000001 148.104919 -7.129217 178.567200 -55.385452 5.476959 4.610234 81.888519 -2.541871 -22.743011 21.455050 -0.003109 -0.000017 9.283731 2.571630 -0.304925 14.086041 2.978486 2.709887 12.393322 3.366554 2.189836 -28.544802 -18.615007 -15.942350 -11.783333 50.731068 -7.524293 47.947979 -89.495644 122.313042 -14.631482 62.351067 134.028870 54.355682 -28.669804 -62.071457 -7.281048 -19.579624 38.171085 -173.976120 71.405205 1.934366 11.948163 -46.684540 -123.932175 50.939121 44.339581 46.640312 -1.213578 23.493427 -12.482042 
105.211967 -8.614989 498.880219 97.132912 2.649034 107.696877 148.410080 -7.411590 168.410934 -104.738350 8.225993 -1.033405 40.459461 -1.143114 -6.533949 21.454138 0.003091 0.000001 151.311859 -6.164633 178.859360 -56.260513 4.625222 2.767160 84.828461 0.546762 -8.307758 21.455109 -0.003108 -0.000017 11.538494 1.364440 0.448177 13.836672 1.843742 3.514156 10.803246 2.452742 2.899521 -28.730537 -20.549086 -14.586647 -15.391723 51.316166 -9.709902 -13.351834 -87.184357 -176.808990 -12.917489 63.525826 136.480988 48.330025 -27.051672 -59.362614 -6.976443 -17.906551 35.521454 -176.004410 71.947746 -0.439304 10.408331 -47.801804 -122.864548 49.302261 46.876011 44.484421 -1.144391 23.663054 -12.017436 
105.649094 -9.047565 503.104156 96.859276 1.404552 107.199028 138.570160 -7.777907 169.752777 -112.720627 12.291378 1.735017 38.101559 -3.679490 -1.714875 21.454117 0.003090 0.000001 153.208572 -5.740104 179.937881 -56.817471 3.598117 1.987578 89.140327 1.949898 5.445987 21.455166 -0.003108 -0.000018 12.192886 0.852180 0.855310 13.131769 1.031853 4.009471 9.879098 1.523248 3.377047 -29.329189 -22.698753 -12.856257 -17.912079 51.458328 -10.657464 -23.380083 -85.774452 -167.219101 -9.452924 64.178551 140.361877 43.016212 -26.533504 -56.579922 -6.037375 -16.895981 32.710327 -177.881836 72.057129 -2.707400 8.351701 -48.317837 -121.000404 47.159184 50.400242 42.841507 -0.703398 23.418629 -11.371868 
106.592346 -9.994017 507.468506 96.601730 0.378078 107.046097 130.974899 -7.338758 169.288956 -115.890083 15.193334 2.396813 41.946217 -0.886856 2.097361 21.454090 0.003089 0.000001 154.887146 -5.251879 -178.466843 -58.083931 2.175472 1.633494 95.422508 1.304302 17.312794 21.455231 -0.003108 -0.000018 12.585983 0.431468 1.051721 12.091138 0.390181 4.254590 9.108570 0.696597 3.605517 -30.145418 -24.228178 -10.866459 -19.427771 51.043362 -10.363422 -33.339634 -84.996956 -157.514816 -4.064592 64.513924 145.726776 37.964142 -26.595068 -52.759514 -5.579288 -16.487764 31.727047 -179.230759 72.057129 -4.603910 5.332659 -47.853962 -118.021156 45.288864 54.662266 42.220589 -0.983982 22.901318 -12.664730 
107.966644 -10.860077 512.006226 96.791222 -0.344286 106.699097 125.889809 -6.232020 167.428360 -112.295792 16.942394 2.963755 47.412464 2.565957 7.168418 21.454065 0.003088 0.000001 157.209259 -4.850142 -176.134857 -58.403843 0.634146 1.424327 101.680077 -0.869926 26.675430 21.455297 -0.003108 -0.000018 13.117908 0.133704 1.172742 11.078600 -0.091798 4.404982 8.482540 -0.050740 3.753957 -30.921255 -24.740040 -8.786567 -20.117561 50.715000 -9.109836 -45.086067 -84.501137 -145.834686 1.614349 64.181938 151.064285 34.571728 -26.761898 -48.993282 -5.728008 -15.826573 32.281136 179.587860 72.110336 -6.517150 1.555418 -46.461857 -114.350327 44.375469 58.377167 42.401627 -1.845372 22.261230 -15.875551 
109.322227 -11.752957 516.859436 96.847694 -0.476194 105.961601 123.169312 -4.608236 164.916382 -98.755714 17.148949 5.031034 52.134930 5.278391 12.149196 21.454027 0.003087 0.000001 161.153885 -4.650665 -173.110077 -56.803200 -0.939115 1.059206 106.093765 -3.497937 33.341801 21.455360 -0.003109 -0.000018 13.629174 -0.043652 1.437880 10.257031 -0.450470 4.611608 8.080655 -0.634588 4.006619 -31.343969 -24.378981 -7.063566 -20.225145 50.494202 -7.509273 -61.033493 -84.313484 -129.786484 6.495631 63.012856 155.378937 32.843857 -26.494167 -45.262070 -6.087275 -15.330535 33.826820 178.506699 72.192398 -8.422681 -2.608261 -44.746819 -110.412163 46.600025 60.581261 44.269104 -2.078237 21.459244 -18.441301 
110.310043 -12.246344 521.974060 96.886177 -0.487695 105.055687 122.911476 -2.850291 162.200592 -75.686836 14.914624 8.594517 54.208073 5.987572 15.004890 21.453983 0.003087 0.000001 166.337097 -4.487226 -169.631485 -53.416885 -2.005953 -0.336693 110.170921 -4.344924 38.614628 21.455418 -0.003109 -0.000018 14.172658 -0.192160 1.584482 9.625943 -0.785726 5.004162 7.726773 -1.084078 4.353988 -31.588377 -24.048431 -5.398223 -21.030130 49.817528 -6.823027 -77.169289 -83.752350 -113.505966 10.670226 61.130634 158.783432 31.798613 -25.759972 -41.391636 -6.316202 -15.843164 35.845085 177.252625 72.440636 -10.565947 -6.526706 -43.312473 -106.661011 52.497280 61.324577 48.124607 -1.954746 20.904697 -19.546835 
110.921936 -12.388799 527.296082 96.611717 -0.499071 104.025627 125.011200 -1.331205 160.016205 -45.870964 9.946458 14.360733 52.888065 0.573584 15.661310 21.453945 0.003088 0.000001 172.190521 -4.549026 -166.241806 -48.680500 -2.006354 -4.017849 114.240692 -2.848556 43.443966 21.455467 -0.003109 -0.000018 14.318553 -0.083131 1.678142 9.239705 -1.193799 5.496687 7.412413 -1.648671 4.779683 -31.360170 -24.221375 -3.896690 -22.198399 48.821266 -6.766006 -90.735367 -82.777237 -99.888039 14.262551 58.517902 161.807434 31.473974 -25.046959 -37.982361 -6.272882 -17.089685 37.954372 175.930862 72.447037 -12.890654 -9.935001 -42.651035 -103.345085 59.672237 61.216270 52.261215 -1.509410 20.519630 -19.021662 
111.380157 -12.714962 532.716370 96.233353 -0.283440 102.366989 126.899414 -0.066786 159.205658 -21.161955 3.648973 19.178864 40.368805 -3.797738 12.786942 21.453926 0.003088 0.000001 178.074966 -4.789280 -163.142548 -45.649723 -2.458821 -8.233893 114.882339 -0.076896 47.383804 21.455477 -0.003109 -0.000018 14.430285 -0.022340 1.969491 9.033686 -1.702017 6.042631 7.249966 -2.258168 5.322014 -30.693663 -25.222254 -2.528939 -22.990854 47.848221 -6.839592 -102.635925 -81.669411 -87.962402 17.347132 55.676537 164.020294 30.347708 -24.626869 -34.441727 -5.776231 -18.921364 39.011219 174.676300 72.304703 -15.076332 -12.695572 -42.735580 -100.539909 67.468620 61.276211 57.617985 -0.738955 19.842157 -17.120440 
111.977867 -13.147971 537.979736 96.433235 -0.540105 100.201942 127.488632 0.268048 157.972137 -12.634562 0.700235 17.945852 36.051476 -8.784075 8.602478 21.453936 0.003089 0.000001 -176.750198 -3.926053 -158.732178 -45.124702 -3.409936 -11.018161 113.284821 2.668435 49.404697 21.455465 -0.003108 -0.000018 14.170918 -0.349933 2.282167 9.049877 -2.456269 6.434694 7.336699 -2.956311 5.723192 -29.627516 -26.315432 -1.257002 -24.050920 47.310982 -7.646464 -111.841927 -80.611725 -78.760353 19.928511 53.080990 165.771790 28.555063 -24.449278 -31.422131 -5.083645 -21.170626 40.488945 173.353409 71.916702 -17.158337 -14.669254 -42.933655 -98.664497 74.967346 61.465134 63.514130 -0.220138 19.195156 -15.204970 
